PathFileType  4	(X/Y/Z) C:\Users\antoi\Documents\MyRepositories\mobilecap\ResultsAnalysis
DataRate	CameraRate	NumFrames	NumMarkers	Units	OrigDataRate	OrigDataStartFrame	OrigNumFrames
100.0	100.0	5	51	mm	100.0	18	142
Frame#	Time	r_knee			r_shank_antsup			r_ankle			r_calc			r_5meta			r_toe			L_knee			L_shank_antsup			L_ankle			L_calc			L_5meta			L_toe			r_sh2			r_sh3			r_sh4			L_sh2			L_sh3			r_thigh1			r_thigh2			r_thigh3			r_thigh4			r_thigh5			L_thigh1			L_thigh2			L_thigh3			L_thigh4			r.ASIS			r.PSIS			L.ASIS			L.PSIS			C7			R_Shoulder			L_Shoulder			R_Sternum			L_Sternum			R_humerus			R_elbow_med			R_elbow_lat			R_forearm			R_wrist_radius			R_wrist_ulna			L_humerus			L_elbow_med			L_elbow_lat			L_forearm			L_wrist_radius			L_wrist_ulna			R_HJC			L_HJC			R_HJC_reg			L_HJC_reg			
		X1	Y1	Z1	X2	Y2	Z2	X3	Y3	Z3	X4	Y4	Z4	X5	Y5	Z5	X6	Y6	Z6	X7	Y7	Z7	X8	Y8	Z8	X9	Y9	Z9	X10	Y10	Z10	X11	Y11	Z11	X12	Y12	Z12	X13	Y13	Z13	X14	Y14	Z14	X15	Y15	Z15	X16	Y16	Z16	X17	Y17	Z17	X18	Y18	Z18	X19	Y19	Z19	X20	Y20	Z20	X21	Y21	Z21	X22	Y22	Z22	X23	Y23	Z23	X24	Y24	Z24	X25	Y25	Z25	X26	Y26	Z26	X27	Y27	Z27	X28	Y28	Z28	X29	Y29	Z29	X30	Y30	Z30	X31	Y31	Z31	X32	Y32	Z32	X33	Y33	Z33	X34	Y34	Z34	X35	Y35	Z35	X36	Y36	Z36	X37	Y37	Z37	X38	Y38	Z38	X39	Y39	Z39	X40	Y40	Z40	X41	Y41	Z41	X42	Y42	Z42	X43	Y43	Z43	X44	Y44	Z44	X45	Y45	Z45	X46	Y46	Z46	X47	Y47	Z47	X48	Y48	Z48	X49	Y49	Z49	X50	Y50	Z50	X51	Y51	Z51	

18	0.17000000	173.99398	465.87398	-92.84805	186.82722	393.10454	-69.86842	161.33711	91.89887	-111.47256	90.83531	58.36297	-152.72193	261.42989	45.50669	-84.02117	305.36846	67.12188	-138.80681	38.45218	436.64208	-410.54521	5.16272	372.82278	-416.28901	-268.64765	239.00598	-373.08743	-314.56114	290.24765	-317.43983	-294.47244	135.51515	-401.05666	-250.22158	93.18108	-357.11469	184.90868	280.66556	-68.29379	111.97529	393.30721	-81.46427	102.61274	278.57339	-85.51667	-38.20476	451.45032	-419.49759	-137.98967	381.70298	-414.64666	165.32815	783.51276	-96.96081	199.81868	674.64159	-88.65056	156.05681	642.77465	-47.02038	68.97871	759.92235	-38.51306	96.25057	646.38941	-49.36272	113.57237	719.05557	-407.46386	120.06248	579.83318	-417.42190	-0.70941	715.19193	-414.35615	12.37329	572.62246	-412.87876	133.62339	913.37386	-112.44336	-53.36494	912.96688	-185.37900	126.95900	890.28698	-369.78216	-56.87564	901.74173	-291.63524	6.29104	1379.75990	-220.08471	57.70256	1314.33783	-65.50761	73.71167	1329.19457	-382.36602	117.52023	1290.17947	-198.80051	119.06351	1291.53506	-242.70378	63.79430	1069.50759	-2.88760	17.32464	971.36686	-64.08583	30.49808	986.61448	6.20977	69.12083	872.42019	26.47197	73.50585	752.48076	31.79393	27.89963	751.59877	38.41755	115.46958	1202.30591	-430.43966	49.36009	989.79323	-418.56807	74.00694	1001.71242	-473.22715	138.61185	910.62032	-483.02580	168.21720	788.26930	-476.75326	136.66264	776.05094	-494.70585	70.75385	831.80548	-133.85450	70.09596	817.10143	-333.59800	75.51015	825.99409	-138.12859	69.90592	808.07932	-307.68242	
19	0.18000000	178.71106	465.90673	-92.27358	190.30839	393.01171	-69.43223	161.81756	92.16914	-111.52071	90.97008	58.58012	-152.77016	261.58792	45.41757	-83.94351	305.61934	66.55057	-138.82637	63.80563	438.46642	-408.98429	30.84854	373.92656	-414.07781	-243.71159	242.23164	-369.84937	-291.67023	294.03537	-316.27803	-267.08092	138.12436	-395.90548	-222.76722	97.83707	-350.22129	187.07326	280.62630	-67.88918	115.55105	394.03677	-81.65748	104.94134	279.42425	-85.78825	-11.75583	452.91536	-418.44351	-112.20911	384.19397	-413.11214	175.36728	783.98996	-96.37448	208.14368	674.45952	-88.26635	163.99790	643.26271	-46.51469	78.90669	761.82264	-37.82393	104.23927	647.81373	-48.70476	129.21860	722.69704	-405.60661	140.08318	583.73862	-415.52711	15.07277	715.67573	-412.81693	32.80760	573.12113	-411.60440	144.98704	914.87399	-111.51455	-42.19223	915.19471	-183.22122	137.67868	893.50528	-368.98342	-45.97917	904.12728	-289.23798	18.67011	1382.22923	-218.11757	71.48940	1316.77138	-64.20749	84.69888	1331.72203	-380.90756	129.80078	1292.57429	-197.87113	131.02296	1294.00175	-241.78377	79.32085	1072.17346	-1.15959	31.79407	973.72588	-60.94162	46.15054	989.23973	8.88719	85.86401	875.30497	28.88323	90.97386	755.61044	34.61276	45.45815	754.30649	41.75159	125.91363	1204.77507	-429.31127	59.15896	992.53158	-417.16077	83.47653	1004.28649	-471.94649	147.43915	912.85216	-482.41577	176.53734	790.48051	-476.27764	144.83255	778.39485	-494.15350	82.32893	833.52467	-132.88453	80.71050	820.01164	-332.69755	86.55580	828.39982	-137.22060	80.49464	810.70112	-306.78296	
20	0.19000000	183.31764	466.00780	-91.70340	193.64432	393.02052	-68.96408	162.27361	92.49287	-111.51655	91.12999	58.81311	-152.79681	261.73540	45.33336	-83.86076	305.85870	66.03962	-138.81442	88.88099	440.87873	-407.32835	56.75908	375.35414	-411.59496	-218.05212	244.30607	-366.63837	-268.23351	296.46053	-315.23835	-238.54984	139.36241	-390.44703	-193.97690	101.47581	-342.97580	189.13543	280.69873	-67.45525	119.04637	394.83891	-81.83712	107.17737	280.37107	-86.04002	14.41304	454.33925	-417.60878	-86.31374	386.06235	-411.80741	185.14342	784.52538	-96.18917	216.27336	674.38076	-88.32078	171.91765	643.83813	-46.26703	88.75293	763.66918	-37.17828	112.28256	649.25729	-48.08309	144.75420	726.57547	-403.77242	159.63907	588.11694	-413.62552	30.72280	716.60087	-411.38135	52.89320	574.26636	-410.30461	156.25293	916.15768	-110.57220	-31.17705	917.46119	-181.16502	148.33406	896.78686	-368.27887	-35.21104	906.70221	-286.94450	30.99015	1384.69240	-216.31092	85.03995	1319.16066	-63.03427	95.45516	1334.12253	-379.74090	141.99128	1295.00522	-197.15846	142.83445	1296.48804	-241.10101	94.58200	1074.82238	0.45753	46.03162	976.05911	-57.65547	61.64651	991.83661	11.56879	102.60722	878.20545	31.20821	108.85672	758.77280	37.36093	63.45936	756.93026	45.01847	136.13382	1207.08156	-428.43620	68.77240	995.04253	-415.98547	92.82382	1006.66790	-470.87207	156.20983	914.94915	-481.89558	184.87325	792.55465	-475.86490	153.03087	780.57318	-493.66836	93.67960	835.11160	-132.06220	91.14874	823.01568	-331.95329	97.40509	830.60943	-136.44129	90.93048	813.35962	-306.09991	
21	0.20000000	187.85022	466.16913	-91.07120	196.89915	393.11700	-68.40233	162.70212	92.86501	-111.44012	91.30607	59.09017	-152.79092	261.86536	45.23722	-83.75843	306.08445	65.57847	-138.76543	113.62213	443.73149	-405.64663	82.84522	377.03964	-408.88203	-191.78195	245.21898	-363.40548	-244.18142	297.47966	-314.09937	-209.22175	139.35432	-384.78408	-164.22076	104.04848	-335.65317	191.14722	280.86147	-66.94358	122.51609	395.71475	-81.90893	109.35960	281.41265	-86.19959	40.20646	455.59634	-417.03787	-60.36533	387.13220	-410.73206	194.66055	785.06764	-96.27762	224.28098	674.39377	-88.59958	179.81003	644.47816	-46.13963	98.50870	765.45886	-36.54261	120.36035	650.71032	-47.45365	160.07239	730.63145	-402.01865	178.75185	592.85945	-411.76110	46.18982	717.79215	-410.11735	72.64137	575.90906	-409.02317	167.40654	917.31995	-109.57606	-20.30736	919.75687	-179.33279	158.93676	900.05369	-367.57908	-24.52622	909.40352	-284.92256	43.26304	1387.10259	-214.64504	98.36077	1321.51549	-61.95210	106.03598	1336.38399	-378.79674	154.12357	1297.40499	-196.61668	154.52781	1298.92192	-240.59608	109.56554	1077.45747	1.99697	60.06870	978.38228	-54.26261	77.01213	994.41909	14.25469	119.38026	881.13978	33.41713	127.10110	761.92537	39.97697	81.87433	759.50732	48.19260	146.13909	1209.23476	-427.78560	78.22763	997.33963	-414.99581	102.04441	1008.87002	-469.96989	164.93728	916.92845	-481.44826	193.22137	794.49832	-475.51128	161.26534	782.59958	-493.24776	104.77325	836.62904	-131.36021	101.49724	826.04446	-331.32893	108.05966	832.66860	-135.72076	101.27173	816.02492	-305.53485	
22	0.21000000	192.32669	466.37468	-90.36632	200.12515	393.28163	-67.75212	163.10896	93.27790	-111.29862	91.48701	59.44442	-152.74961	261.97806	45.12236	-83.63365	306.30198	65.15561	-138.67841	137.96752	446.89320	-404.00425	108.99637	378.94070	-406.01138	-165.00092	244.99651	-360.12116	-219.55499	297.04905	-312.71066	-179.24588	138.23496	-379.02976	-133.66262	105.59991	-328.47233	193.15736	281.08989	-66.36096	125.99230	396.64990	-81.84484	111.52694	282.52568	-86.23985	65.52929	456.63468	-416.71991	-34.44535	387.34926	-409.84407	203.95413	785.54942	-96.45633	232.21971	674.45001	-88.87489	187.63656	645.13184	-46.00255	108.15743	767.18404	-35.89328	128.40738	652.15052	-46.79472	175.00861	734.84664	-400.42650	197.46682	597.85998	-409.98171	61.46224	719.10122	-409.05043	92.08731	577.88947	-407.80522	178.41772	918.44231	-108.51554	-9.56468	922.05974	-177.78901	169.48837	903.22512	-366.80893	-13.88855	912.14117	-283.27125	55.48453	1389.41170	-213.11267	111.48487	1323.83883	-60.94775	116.50244	1338.49985	-377.99818	166.21782	1299.69790	-196.20150	166.15377	1301.23063	-240.21006	124.25679	1080.08163	3.50205	73.91895	980.69556	-50.81395	92.27046	996.99366	16.93946	136.21817	884.12481	35.49047	145.63767	765.04913	42.39478	100.65496	762.07839	51.25041	155.94722	1211.24522	-427.32340	87.56453	999.44409	-414.13694	111.12586	1010.91273	-469.20144	173.62524	918.80631	-481.06516	201.57865	796.32781	-475.21192	169.54209	784.49607	-492.88512	115.60102	838.12602	-130.73848	111.82295	829.01898	-330.77757	118.52312	834.63688	-134.99913	111.55424	818.65741	-304.98363	
